<svg xmlns="http://www.w3.org/2000/svg" width="623.203" height="83.094" viewBox="0 0 623.203 83.094"><defs><style>.a{fill:#e4c064;}</style></defs><g transform="translate(-852 -39.25)"><g transform="translate(971.173 58.539)"><g transform="translate(0 0.078)"><path d="M49.661,119.241,32.108,161.033a1.34,1.34,0,0,0,1.228,1.855h7.131a1.336,1.336,0,0,0,1.228-.836l2.9-7.052a1.363,1.363,0,0,1,1.228-.836H62.067a1.335,1.335,0,0,1,1.228.836l2.9,7.078a1.363,1.363,0,0,0,1.228.836H74.6a1.33,1.33,0,0,0,1.228-1.855l-17.6-41.765a1.338,1.338,0,0,0-1.228-.81H50.862A1.184,1.184,0,0,0,49.661,119.241Zm-.313,24.265,3.4-8.228a1.347,1.347,0,0,1,2.481,0l3.369,8.228a1.34,1.34,0,0,1-1.228,1.855H50.575A1.354,1.354,0,0,1,49.347,143.506Z" transform="translate(-32.005 -118.406)"/><path d="M237.095,122.322c-3.108-2.664-7.313-4.022-12.564-4.022h-16.9a1.338,1.338,0,0,0-1.332,1.332V161.4a1.338,1.338,0,0,0,1.332,1.332h6.739A1.338,1.338,0,0,0,215.7,161.4V151.028a1.338,1.338,0,0,1,1.332-1.332h7.209c5.276,0,9.56-1.384,12.72-4.127,3.239-2.795,4.884-6.791,4.884-11.806C241.9,128.9,240.281,125.065,237.095,122.322ZM224.27,140.737h-7.209a1.338,1.338,0,0,1-1.332-1.332v-10.84a1.338,1.338,0,0,1,1.332-1.332h7.209a9.516,9.516,0,0,1,6.112,1.724h0a5.923,5.923,0,0,1,1.959,4.91C232.341,137.08,231.427,140.737,224.27,140.737Z" transform="translate(-160.775 -118.274)"/><path d="M386.495,122.322c-3.108-2.664-7.313-4.022-12.563-4.022h-16.9a1.338,1.338,0,0,0-1.332,1.332V161.4a1.338,1.338,0,0,0,1.332,1.332h6.739A1.338,1.338,0,0,0,365.1,161.4V151.028a1.338,1.338,0,0,1,1.332-1.332h7.209c5.276,0,9.56-1.384,12.72-4.127,3.239-2.795,4.885-6.791,4.885-11.806C391.275,128.9,389.655,125.065,386.495,122.322ZM373.67,140.737h-7.209a1.338,1.338,0,0,1-1.332-1.332v-10.84a1.338,1.338,0,0,1,1.332-1.332h7.209a9.516,9.516,0,0,1,6.112,1.724h0a5.923,5.923,0,0,1,1.959,4.91C381.715,137.08,380.8,140.737,373.67,140.737Z" transform="translate(-271.153 -118.274)"/><path d="M513.171,118.3h-6.739a1.338,1.338,0,0,0-1.332,1.332V161.4a1.338,1.338,0,0,0,1.332,1.332h27.373a1.338,1.338,0,0,0,1.332-1.332v-6.269a1.338,1.338,0,0,0-1.332-1.332H515.861a1.338,1.338,0,0,1-1.332-1.332V119.632A1.378,1.378,0,0,0,513.171,118.3Z" transform="translate(-381.53 -118.274)"/><path d="M618.136,118.905l-8.541,14.94a1.347,1.347,0,0,1-2.325,0l-8.646-14.967a1.329,1.329,0,0,0-1.149-.679h-7.757a1.331,1.331,0,0,0-1.15,2.011l14.888,25.153a1.264,1.264,0,0,1,.182.679V161.3a1.338,1.338,0,0,0,1.332,1.332h6.817a1.338,1.338,0,0,0,1.332-1.332V146.043a1.264,1.264,0,0,1,.183-.679l14.888-25.153a1.331,1.331,0,0,0-1.149-2.011h-7.757A1.45,1.45,0,0,0,618.136,118.905Z" transform="translate(-443.059 -118.2)"/></g><g transform="translate(201.928)"><path class="a" d="M839.473,143.053H826.623a1.338,1.338,0,0,1-1.333-1.332v-2.534a1.338,1.338,0,0,1,1.333-1.332h17.657a1.338,1.338,0,0,1,1.332,1.332v2.22q0,9.677-5.172,15.436c-3.448,3.813-8.176,5.746-14.157,5.746-6.425,0-11.545-2.116-15.41-6.373s-5.772-9.56-5.772-15.933q0-9.638,5.877-16.011t15.515-6.373a25.835,25.835,0,0,1,5.59.575,19.276,19.276,0,0,1,4.336,1.384,26.567,26.567,0,0,1,2.926,1.646,14.01,14.01,0,0,1,1.828,1.384l.5.575-3.5,4.493c-.34-.34-.783-.758-1.384-1.254a17.01,17.01,0,0,0-3.918-1.985,16.5,16.5,0,0,0-6.373-1.254,14.044,14.044,0,0,0-11.126,4.806,19.295,19.295,0,0,0-.079,23.951,13.761,13.761,0,0,0,10.97,4.806,12.57,12.57,0,0,0,9.586-3.787,13.737,13.737,0,0,0,3.6-9.9v-.287Z" transform="translate(-805.1 -117.9)"/><path class="a" d="M1015.457,145.143H997.383a1.338,1.338,0,0,0-1.332,1.332V157.5a1.338,1.338,0,0,0,1.332,1.332h21.653a1.338,1.338,0,0,1,1.332,1.332v2.664a1.338,1.338,0,0,1-1.332,1.332h-27.5a1.338,1.338,0,0,1-1.332-1.332V122.732a1.338,1.338,0,0,1,1.332-1.332h27.477a1.338,1.338,0,0,1,1.333,1.332V125.4a1.338,1.338,0,0,1-1.333,1.332H997.357a1.338,1.338,0,0,0-1.332,1.332v10.526a1.338,1.338,0,0,0,1.332,1.332h18.075a1.338,1.338,0,0,1,1.332,1.332v2.534A1.305,1.305,0,0,1,1015.457,145.143Z" transform="translate(-941.853 -120.486)"/><path class="a" d="M1155.208,121.4c5.094,0,9.09,1.254,11.99,3.735s4.335,6.007,4.335,10.526a14.2,14.2,0,0,1-2.48,8.489,13.548,13.548,0,0,1-6.922,4.858v.287l10.474,13.765v1.149h-5.668a1.415,1.415,0,0,1-1.07-.522l-9.9-13.112a1.336,1.336,0,0,0-1.071-.522h-9.612a1.338,1.338,0,0,0-1.333,1.332v11.44a1.338,1.338,0,0,1-1.332,1.332h-3.186a1.338,1.338,0,0,1-1.333-1.332V122.732a1.338,1.338,0,0,1,1.333-1.332Zm7.5,7.627c-1.854-1.515-4.414-2.272-7.7-2.272h-9.716a1.338,1.338,0,0,0-1.333,1.332v15.306a1.338,1.338,0,0,0,1.333,1.332H1155.5a11.068,11.068,0,0,0,7.261-2.246c1.8-1.489,2.717-3.709,2.717-6.66C1165.474,132.788,1164.559,130.542,1162.7,129.027Z" transform="translate(-1051.122 -120.486)"/><path class="a" d="M1333.406,135.452l-10.6,13.661a1.4,1.4,0,0,1-1.044.522h-.627a1.255,1.255,0,0,1-1.045-.522l-10.6-13.556a1.331,1.331,0,0,0-2.377.836v26.433a1.338,1.338,0,0,1-1.333,1.332h-3.238a1.338,1.338,0,0,1-1.333-1.332l.078-40.093a1.338,1.338,0,0,1,1.332-1.332h2.3a1.253,1.253,0,0,1,1.046.522l14.522,18.649a1.353,1.353,0,0,0,2.115,0l14.445-18.649a1.321,1.321,0,0,1,1.044-.522h2.3a1.338,1.338,0,0,1,1.333,1.332v40.093a1.338,1.338,0,0,1-1.333,1.332h-3.186a1.338,1.338,0,0,1-1.333-1.332V136.262A1.375,1.375,0,0,0,1333.406,135.452Z" transform="translate(-1171.623 -120.486)"/><path class="a" d="M1520.542,164.158h-3.292a1.336,1.336,0,0,1-1.227-.836l-3.108-7.548a1.364,1.364,0,0,0-1.228-.836h-19.956a1.336,1.336,0,0,0-1.228.836l-3.108,7.548a1.364,1.364,0,0,1-1.228.836h-3.238a1.33,1.33,0,0,1-1.227-1.855l16.847-40.093a1.339,1.339,0,0,1,1.227-.81h3.866a1.312,1.312,0,0,1,1.228.81l16.9,40.093A1.34,1.34,0,0,1,1520.542,164.158Zm-25.571-14.392h13.478a1.341,1.341,0,0,0,1.228-1.854l-6.713-16.325a1.347,1.347,0,0,0-2.481,0l-6.765,16.325A1.343,1.343,0,0,0,1494.971,149.766Z" transform="translate(-1304.9 -120.486)"/><path class="a" d="M1696.4,164.158h-2.377a1.336,1.336,0,0,1-1.044-.5l-23.247-28.966a1.336,1.336,0,0,0-2.377.836v27.295a1.337,1.337,0,0,1-1.332,1.332h-3.187a1.337,1.337,0,0,1-1.331-1.332V122.732a1.337,1.337,0,0,1,1.331-1.332h2.377a1.376,1.376,0,0,1,1.045.5l23.168,28.705a1.336,1.336,0,0,0,2.377-.836V122.732a1.338,1.338,0,0,1,1.332-1.332h3.239a1.337,1.337,0,0,1,1.332,1.332v40.093A1.3,1.3,0,0,1,1696.4,164.158Z" transform="translate(-1437.814 -120.486)"/><path class="a" d="M1857.48,121.326h3.579a1.331,1.331,0,0,1,1.149,2.011l-14.235,24.056a1.263,1.263,0,0,0-.182.679v14.679a1.338,1.338,0,0,1-1.333,1.332h-3.239a1.338,1.338,0,0,1-1.332-1.332V148.046a1.271,1.271,0,0,0-.182-.679l-14.236-24.056a1.331,1.331,0,0,1,1.149-2.011h3.578a1.326,1.326,0,0,1,1.149.679l10.056,17.4a.2.2,0,0,1,.052.131l1.333,2.925h.131l1.411-2.951c.026-.026.026-.052.051-.078l9.926-17.4A1.347,1.347,0,0,1,1857.48,121.326Z" transform="translate(-1560.293 -120.412)"/></g></g><path class="a" d="M18168.609-14815.906h-80.121a1.485,1.485,0,0,1-1.488-1.477v-80.129a1.5,1.5,0,0,1,1.488-1.488h80.121a1.492,1.492,0,0,1,1.484,1.488v36.336h-33.754v7.43h33.754v36.363A1.482,1.482,0,0,1,18168.609-14815.906Z" transform="translate(-17235 14938.25)"/></g></svg>