<svg xmlns="http://www.w3.org/2000/svg" width="45" height="45" viewBox="0 0 45 45">
  <g id="Icon" transform="translate(-25 -19)">
    <g id="Rectangle_2340" data-name="Rectangle 2340" transform="translate(25 19)" fill="#fff" stroke="#707070" stroke-width="1" opacity="0">
      <rect width="45" height="45" stroke="none"/>
      <rect x="0.5" y="0.5" width="44" height="44" fill="none"/>
    </g>
    <path id="Path_13470" data-name="Path 13470" d="M-18072.562-13477.578h-26.869a3.571,3.571,0,0,1-3.566-3.566v-12.391l1.639,1.227v11.164a1.925,1.925,0,0,0,1.928,1.917h26.869a1.922,1.922,0,0,0,1.918-1.917v-11.164l1.646-1.227v12.391A3.57,3.57,0,0,1-18072.562-13477.578Zm-13.436-8.965a3.544,3.544,0,0,1-2.129-.714l-14.871-11.061v-3.115a3.573,3.573,0,0,1,3.566-3.566h26.869a3.571,3.571,0,0,1,3.564,3.566v3.115l-14.869,11.061A3.567,3.567,0,0,1-18086-13486.543Zm-13.434-16.814a1.93,1.93,0,0,0-1.928,1.925v2.287l14.217,10.569a1.9,1.9,0,0,0,1.145.384,1.925,1.925,0,0,0,1.146-.384l14.207-10.569v-2.287a1.927,1.927,0,0,0-1.918-1.925Z" transform="translate(18133.498 13532.789)" fill="#2b2827"/>
  </g>
</svg>
